<?xml version="1.0" encoding="utf-8" ?>
<svg xmlns="http://www.w3.org/2000/svg" xmlns:xlink="http://www.w3.org/1999/xlink" width="1024" height="1024">
	<path fill="#FEFEFE" d="M0 0L1024 0L1024 1024L0 1024L0 0Z"/>
	<path fill="#010000" d="M711.932 61.1881C718.772 60.4194 726.023 61.0181 732.696 62.672C747.28 66.2866 758.662 75.9076 766.228 88.7094C773.863 101.627 776.421 117.937 772.505 132.5C766.229 155.84 753.422 159.807 736.032 172.565C728.068 178.408 720.379 185.186 711.848 190.169Q708.971 191.531 705.918 192.434Q702.865 193.337 699.71 193.76Q698.677 193.903 697.637 193.995Q696.598 194.087 695.556 194.128Q694.513 194.168 693.47 194.157Q692.427 194.146 691.385 194.084Q690.344 194.022 689.307 193.908Q688.27 193.794 687.24 193.63Q686.21 193.465 685.189 193.25Q684.168 193.034 683.159 192.769Q682.15 192.503 681.155 192.189Q680.161 191.874 679.183 191.51Q678.205 191.147 677.246 190.735Q676.288 190.324 675.35 189.866Q674.413 189.407 673.5 188.904Q672.586 188.4 671.699 187.851Q670.811 187.303 669.952 186.712Q669.092 186.12 668.263 185.487Q667.493 184.897 666.752 184.269Q666.012 183.641 665.304 182.978Q664.596 182.314 663.921 181.617Q663.247 180.919 662.608 180.188Q661.969 179.458 661.366 178.697Q660.764 177.936 660.201 177.146Q659.637 176.356 659.113 175.539Q658.589 174.722 658.106 173.88Q657.623 173.038 657.183 172.173Q656.742 171.309 656.345 170.423Q655.948 169.538 655.595 168.634Q655.242 167.73 654.934 166.809Q654.627 165.889 654.365 164.954Q654.103 164.02 653.888 163.073Q653.673 162.127 653.505 161.171Q653.337 160.215 653.217 159.252C652.497 153.226 653.017 146.895 653 140.829C652.941 118.613 653.093 104.911 667.661 86.3799C678.757 72.2662 694.14 63.3812 711.932 61.1881Z"/>
	<path fill="#FEFEFE" d="M713.848 63.1858C718.868 62.5087 724.749 63.2506 729.675 64.3318C743.97 67.4693 755.427 75.7508 763.259 88.0789C771.104 100.427 773.746 116.471 770.455 130.73C765.129 153.812 752.115 157.635 735.203 170.164C727.096 176.169 719.264 182.899 710.702 188.233C707.023 189.957 703.385 191.081 699.356 191.606Q698.387 191.742 697.413 191.83Q696.438 191.918 695.461 191.957Q694.483 191.996 693.505 191.987Q692.527 191.978 691.55 191.92Q690.573 191.863 689.601 191.757Q688.628 191.651 687.662 191.497Q686.696 191.343 685.739 191.141Q684.781 190.939 683.835 190.69Q682.889 190.441 681.956 190.145Q681.024 189.85 680.107 189.508Q679.19 189.167 678.291 188.78Q677.392 188.394 676.514 187.963Q675.635 187.533 674.779 187.059Q673.923 186.585 673.092 186.07Q672.26 185.554 671.455 184.998Q670.65 184.442 669.874 183.847C662.422 178.048 656.679 168.986 655.595 159.518C654.888 153.341 655.432 146.916 655.457 140.705C655.484 134.22 655.073 127.507 655.622 121.055C656.632 109.165 662.63 96.5212 670.009 87.2824C681.08 73.4205 696.248 65.0947 713.848 63.1858Z"/>
	<path fill="#010000" d="M355.968 56.2227L442.129 56.0024C464.133 55.9829 491.729 53.9903 512.768 58.976C535.315 64.3191 554.362 74.7925 570.891 90.9849C590.114 109.815 602.142 136.402 604.235 163.207C605.169 175.159 604.351 187.501 604.536 199.508C604.807 217.069 611.386 234.151 624.112 246.424C642.609 264.261 669.625 272.126 694.053 262.013C704.34 257.754 713.942 250.732 723.353 244.828L758.248 223.12C764.261 219.331 769.936 214.784 776.43 211.836C787.178 206.957 798.099 204.356 809.909 204.182C832.59 203.848 853.329 212.599 869.423 228.462Q870.623 229.66 871.772 230.907Q872.92 232.154 874.016 233.448Q875.111 234.742 876.151 236.081Q877.191 237.42 878.174 238.802Q879.157 240.183 880.081 241.605Q881.005 243.026 881.868 244.486Q882.731 245.945 883.533 247.439Q884.334 248.933 885.072 250.459Q885.81 251.986 886.484 253.542Q887.157 255.098 887.764 256.681Q888.372 258.264 888.912 259.871Q889.452 261.478 889.925 263.106Q890.397 264.734 890.801 266.381Q891.204 268.028 891.538 269.69Q891.872 271.352 892.137 273.027Q892.401 274.702 892.594 276.386C893.578 285.773 893.216 295.444 893.254 304.88L893.494 344.201C906.468 344.651 919.579 344.275 932.562 344.148C940.106 344.074 948.575 343.236 955.966 344.878C960.481 345.881 964.189 347.67 967.625 350.816C973.758 356.432 976.405 362.68 976.685 370.904C977.345 390.33 976.715 410.021 976.733 429.48C976.741 438.171 977.725 456.698 976.255 463.904C975.301 468.58 973.048 473.173 969.692 476.587C966.301 480.036 961.523 482.226 956.835 483.279C949.393 484.95 940.665 484.094 933.018 484.081L895.564 484.066C894.767 487.264 894.518 490.728 894.55 494.016C894.769 516.029 908.041 537.053 928.671 545.251C944.935 551.713 951.718 547.981 966.205 562.236C980.084 575.891 982.313 592.124 982.392 610.763L982.475 731.793L982.544 782.886C982.557 793.801 982.963 804.857 982.019 815.737C978.462 856.716 962.048 895.112 932.919 924.441C910.623 946.889 883.335 962.134 852.283 968.6C846.963 969.708 841.478 970.886 836.061 971.298C827.346 971.961 818.153 971.427 809.41 971.214Q795.612 970.949 781.812 971.024L687.625 971.074L304.643 971.061L218.562 971.036C205.39 971.037 185.2 972.397 172.76 969.854C143.975 963.969 116.248 946.95 95.4538 926.614C61.465 893.374 44.169 849.451 43.6572 802.143L43.4967 698.266L43.4651 665.508C43.4556 653.837 42.9063 642.203 45.5622 630.741Q46.2187 627.99 47.0582 625.289Q47.8976 622.589 48.9161 619.95Q49.9347 617.312 51.1278 614.748Q52.3209 612.183 53.6831 609.705Q55.0454 607.226 56.5707 604.845Q58.096 602.463 59.7775 600.189Q61.4591 597.915 63.2892 595.759Q65.1194 593.603 67.0899 591.574Q68.4307 590.201 69.8304 588.887Q71.2302 587.574 72.6862 586.324Q74.1422 585.073 75.6517 583.888Q77.1612 582.702 78.7213 581.584Q80.2813 580.466 81.8889 579.417Q83.4965 578.369 85.1486 577.392Q86.8006 576.415 88.494 575.511Q90.1873 574.608 91.9187 573.779Q93.65 572.951 95.416 572.199Q97.1821 571.448 98.9794 570.774Q100.777 570.101 102.602 569.507Q104.427 568.913 106.276 568.399Q108.126 567.886 109.996 567.454Q111.866 567.023 113.753 566.674Q115.641 566.324 117.542 566.058Q119.442 565.792 121.353 565.61C127.828 565.056 134.442 565.409 140.94 565.374C156.849 565.286 170.891 561.376 182.28 549.697C197.047 534.553 195.96 519.79 195.753 500.172C169.589 499.272 142.417 499.957 116.164 500.036C106.508 500.065 92.3941 501.223 83.2256 499.564Q82.5183 499.43 81.8226 499.244Q81.127 499.059 80.4467 498.823Q79.7665 498.587 79.1052 498.302Q78.444 498.017 77.8053 497.685Q77.1666 497.353 76.5538 496.975Q75.9411 496.597 75.3576 496.175Q74.774 495.753 74.2228 495.29Q73.6716 494.827 73.1556 494.325C70.2576 491.559 68.158 488.392 67.1151 484.506C64.9219 476.334 66.1594 465.883 66.2189 457.464C66.2712 450.056 66.0868 442.658 66.02 435.252C65.9524 427.767 66.8431 419.9 72.5253 414.388C75.5506 411.453 79.6865 409.632 83.8116 408.931C92.8568 407.396 108.187 408.608 117.924 408.615L195.823 408.531L195.922 285.617L195.966 240.833C195.973 229.447 195.746 218.089 196.927 206.745C200.657 170.912 217.121 135.742 241.504 109.349Q242.878 107.865 244.288 106.415Q245.698 104.965 247.143 103.549Q248.587 102.134 250.066 100.754Q251.545 99.3742 253.057 98.0308Q254.569 96.6873 256.113 95.381Q257.657 94.0747 259.232 92.8064Q260.808 91.5381 262.414 90.3084Q264.019 89.0788 265.655 87.8886Q267.29 86.6984 268.954 85.5483Q270.617 84.3982 272.309 83.289Q274 82.1797 275.717 81.1119Q277.435 80.0441 279.178 79.0184Q280.921 77.9927 282.689 77.0097Q284.457 76.0267 286.248 75.087Q288.039 74.1473 289.852 73.2514Q291.665 72.3556 293.5 71.5041Q295.334 70.6526 297.189 69.846Q299.044 69.0394 300.918 68.2782Q302.791 67.517 304.683 66.8015Q306.575 66.0861 308.484 65.4169Q310.392 64.7477 312.317 64.1251Q314.241 63.5025 316.18 62.9269Q318.119 62.3513 320.071 61.8231Q322.023 61.2949 323.988 60.8143Q325.953 60.3337 327.928 59.901Q329.904 59.4683 331.89 59.0839Q333.875 58.6994 335.87 58.3633Q337.864 58.0273 339.866 57.7398Q341.868 57.4524 343.877 57.2137Q345.885 56.9751 347.899 56.7854Q349.912 56.5956 351.93 56.4549Q353.948 56.3143 355.968 56.2227Z"/>
	<path fill="#4666C9" d="M517.98 869.874C525.171 870.307 532.491 870.125 539.701 870.194Q526.986 897.132 513.798 923.842Q510.283 931.707 506.467 939.43C508.318 931.998 509.096 924.138 510.312 916.568Q513.999 893.197 517.98 869.874Z"/>
	<path fill="#FEFEFE" d="M568.587 469.82C572.741 471.262 577.075 472.274 581.322 473.409C584.712 481.574 595.165 510.653 591.614 518.371C591.126 519.432 590.909 519.444 589.878 519.805C586.742 520.665 583.692 521.345 580.474 521.824C577.421 520.298 574.516 518.54 572.22 515.964Q571.423 515.083 570.746 514.109Q570.068 513.134 569.52 512.08Q568.972 511.027 568.563 509.912Q568.154 508.798 567.89 507.64C565.826 498.571 568.037 479.703 568.587 469.82Z"/>
	<path fill="#FEFEFE" d="M420.629 630.558C427.276 629.952 432.485 632.099 438.591 634.285C435.957 640.572 419.61 679.531 417.25 681.397L415.882 681.144C408.077 678.726 400.982 677.279 396.522 669.7C396.37 665.308 396.894 662.184 398.838 658.178C401.704 652.274 411.296 637.123 415.911 633.006C417.292 631.773 418.911 631.174 420.629 630.558Z"/>
	<path fill="#F4793D" d="M627.926 870.263C631.752 870.148 635.593 870.215 639.421 870.22C644.597 883.518 688.064 965.54 687.712 968.331L686.125 968.521L675.373 968.603C668.79 958.367 664.029 946.436 658.646 935.524Q642.742 903.023 625.731 871.087L626.043 870.396L627.926 870.263Z"/>
	<path fill="#F4793D" d="M542.424 870.044L556.655 870.016C539.362 902.047 524.378 935.522 508.559 968.308C504.063 968.657 499.473 968.589 494.962 968.698C502.389 955.524 508.344 941.162 514.857 927.495C523.995 908.321 533.575 889.353 542.424 870.044Z"/>
	<path fill="#F4793D" d="M175.985 893.362C183.735 893.202 191.511 893.317 199.264 893.304L199.222 968.475C191.615 968.634 183.561 969.125 176.022 968.048L175.985 893.362Z"/>
	<path fill="#F4793D" d="M312.495 893.243Q324.036 893.143 335.577 893.219L335.725 968.563L312.431 968.627L312.495 893.243Z"/>
	<path fill="#FEE9E1" d="M605.697 870.123C611.295 870.094 616.88 870.068 622.476 870.281C629.93 882.737 636.018 896.253 642.514 909.245C652.413 929.045 662.443 948.742 672.022 968.703L652.125 968.748L587.048 968.898C589.382 951.576 593.427 934.313 596.795 917.16C599.872 901.497 602.33 885.733 605.697 870.123Z"/>
	<path fill="#4666C9" d="M559.421 870.07L603.111 870.085Q592.72 919.393 584.32 969.079L555.25 969.019L511.107 968.91Q526.928 935.122 543.418 901.655C548.674 891.109 554.639 880.837 559.421 870.07Z"/>
	<path fill="#F4793D" d="M813.554 716.169Q825.268 716.052 836.982 716.117L836.995 883.691C837.012 912.099 837.572 940.554 837.292 968.956C829.258 969.069 821.212 968.989 813.176 968.998L813.554 716.169Z"/>
	<path fill="#FEFEFE" d="M523.376 575.896C523.471 580.591 520.647 588.118 520.554 594.231C520.149 620.841 522.025 649.035 520.584 675.366C513.859 683.546 509.183 693.723 499.272 698.652C494.133 701.208 488.063 702.597 482.328 702.154C471.758 701.336 440.658 689.543 428.875 685.52L420.006 682.208C426.711 666.36 434.205 650.815 440.966 634.973C452.73 638.049 464.366 641.862 476.007 645.386C480.905 636.493 487.569 628.19 493.256 619.736C503.089 605.119 512.545 589.779 523.376 575.896Z"/>
	<path fill="#FEE9E1" d="M214.737 893.251Q262.383 892.83 310.028 893.283C310.672 918.325 310.093 943.528 310.167 968.589L296.25 968.633L201.667 968.565L201.717 893.359C206.052 893.25 210.4 893.283 214.737 893.251Z"/>
	<path fill="#F4793D" d="M176.01 716.431C194.787 716.117 213.609 716.391 232.391 716.383L335.818 716.388L335.827 771.407L176.032 771.49L176.01 716.431Z"/>
	<path fill="#010000" d="M255.71 729.667C258.363 729.801 260.764 730.346 263.063 731.738Q263.632 732.082 264.164 732.481Q264.697 732.88 265.188 733.329Q265.678 733.778 266.122 734.273Q266.566 734.768 266.96 735.304Q267.353 735.841 267.692 736.413Q268.031 736.986 268.311 737.589Q268.592 738.192 268.812 738.819Q269.033 739.447 269.19 740.093Q269.347 740.735 269.44 741.389Q269.533 742.043 269.561 742.703Q269.589 743.364 269.553 744.023Q269.516 744.683 269.414 745.336Q269.313 745.989 269.147 746.629Q268.982 747.268 268.755 747.889Q268.527 748.509 268.24 749.104Q267.952 749.699 267.608 750.263C265.123 754.328 261.629 756.064 257.119 757.05C254.052 756.794 251.514 756.469 248.915 754.708Q248.336 754.316 247.8 753.867Q247.264 753.418 246.777 752.917Q246.29 752.415 245.858 751.866Q245.425 751.317 245.051 750.726Q244.676 750.135 244.365 749.51Q244.053 748.884 243.808 748.229Q243.562 747.575 243.385 746.898Q243.208 746.222 243.101 745.531C242.494 741.81 243.358 737.883 245.665 734.874C248.33 731.399 251.521 730.296 255.71 729.667Z"/>
	<path fill="#F4793D" d="M254.119 732.583C255.817 732.511 257.478 732.424 259.125 732.92C261.9 733.758 264.39 735.607 265.758 738.189Q266.024 738.688 266.237 739.213Q266.45 739.737 266.607 740.281Q266.763 740.825 266.862 741.382Q266.961 741.939 267.002 742.504Q267.042 743.068 267.023 743.634Q267.004 744.199 266.926 744.76Q266.848 745.32 266.712 745.87Q266.576 746.419 266.383 746.951C264.913 750.963 262.073 752.78 258.311 754.417C256.237 754.486 254.37 754.526 252.421 753.719Q251.903 753.51 251.408 753.25Q250.914 752.991 250.448 752.682Q249.982 752.374 249.55 752.02Q249.118 751.666 248.723 751.271Q248.329 750.875 247.977 750.442Q247.624 750.008 247.317 749.542Q247.01 749.075 246.752 748.58Q246.493 748.085 246.286 747.566C245.157 744.713 245.157 741.536 246.458 738.737C248.066 735.277 250.673 733.854 254.119 732.583Z"/>
	<path fill="#F4793D" d="M308.002 834.25L335.765 834.19L335.583 890.845L203.875 890.719L175.989 890.676L175.967 834.461C192.822 834.009 209.775 834.29 226.638 834.32L308.002 834.25Z"/>
	<path fill="#010000" d="M254.853 851.128C257.238 851.094 259.712 851.475 261.862 852.542Q262.47 852.841 263.046 853.199Q263.622 853.557 264.159 853.97Q264.696 854.383 265.19 854.847Q265.684 855.311 266.13 855.822Q266.576 856.332 266.969 856.884Q267.362 857.437 267.698 858.025Q268.035 858.613 268.311 859.232Q268.588 859.851 268.802 860.494Q269.027 861.167 269.183 861.858Q269.339 862.55 269.425 863.254Q269.511 863.958 269.525 864.667Q269.539 865.377 269.481 866.084Q269.424 866.791 269.295 867.488Q269.167 868.186 268.969 868.867Q268.771 869.547 268.505 870.205Q268.239 870.863 267.908 871.49C265.768 875.528 262.514 877.376 258.279 878.645C254.969 878.609 252.165 878.433 249.222 876.682Q248.64 876.343 248.094 875.948Q247.549 875.553 247.045 875.106Q246.541 874.659 246.085 874.163Q245.628 873.668 245.223 873.13Q244.818 872.591 244.469 872.015Q244.119 871.439 243.829 870.832Q243.539 870.224 243.311 869.59Q243.082 868.956 242.918 868.303Q242.742 867.609 242.638 866.9Q242.533 866.192 242.501 865.476Q242.469 864.761 242.51 864.046Q242.551 863.331 242.664 862.624Q242.777 861.917 242.962 861.224Q243.146 860.532 243.4 859.863Q243.654 859.193 243.974 858.552Q244.294 857.912 244.678 857.307C247.091 853.581 250.624 851.909 254.853 851.128Z"/>
	<path fill="#F4793D" d="M254.257 854.05C256.061 854.009 257.761 854.026 259.476 854.661C262.35 855.725 264.702 857.796 265.926 860.628Q266.145 861.142 266.31 861.677Q266.476 862.211 266.586 862.759Q266.696 863.307 266.749 863.864Q266.803 864.42 266.799 864.979Q266.795 865.538 266.735 866.094Q266.674 866.65 266.557 867.197Q266.44 867.744 266.267 868.276Q266.095 868.807 265.869 869.319C264.381 872.761 261.662 874.914 258.233 876.234C255.931 876.194 253.79 876.119 251.694 875.054C248.871 873.621 246.676 871.182 245.709 868.152C244.814 865.347 245.06 862.17 246.496 859.589C248.233 856.467 250.932 854.977 254.257 854.05Z"/>
	<path fill="#F4793D" d="M694.893 669.009L899.94 669.019Q899.738 691.164 899.901 713.31L694.992 713.65L694.893 669.009Z"/>
	<path fill="#F4793D" d="M176.007 774.031L335.81 773.975L335.686 831.87C329.949 832.24 323.996 831.951 318.237 831.958L283.723 831.977L175.978 831.977L176.007 774.031Z"/>
	<path fill="#010000" d="M253.744 791.594C256.255 791.416 258.591 791.557 260.961 792.493Q261.625 792.748 262.258 793.072Q262.891 793.396 263.487 793.784Q264.082 794.173 264.634 794.622Q265.185 795.071 265.686 795.576Q266.187 796.081 266.632 796.635Q267.077 797.19 267.462 797.788Q267.846 798.386 268.165 799.022Q268.484 799.657 268.735 800.323Q268.962 800.932 269.127 801.561Q269.292 802.19 269.395 802.832Q269.498 803.475 269.537 804.124Q269.576 804.773 269.551 805.423Q269.526 806.072 269.437 806.717Q269.348 807.361 269.196 807.993Q269.044 808.625 268.83 809.24Q268.617 809.854 268.344 810.444C266.343 814.749 262.977 817.045 258.687 818.733C256.116 818.899 253.781 818.804 251.355 817.84Q250.688 817.58 250.052 817.252Q249.416 816.924 248.817 816.532Q248.219 816.141 247.663 815.689Q247.108 815.238 246.603 814.731Q246.097 814.225 245.647 813.669Q245.196 813.113 244.806 812.513Q244.415 811.914 244.089 811.277Q243.762 810.64 243.503 809.973Q243.249 809.314 243.064 808.632Q242.879 807.95 242.766 807.253Q242.652 806.556 242.611 805.851Q242.57 805.146 242.602 804.44Q242.634 803.734 242.739 803.036Q242.844 802.337 243.02 801.653Q243.196 800.969 243.442 800.307Q243.687 799.644 244 799.011C246.111 794.776 249.434 792.994 253.744 791.594Z"/>
	<path fill="#F4793D" d="M254.604 794.136C256.853 794.127 258.935 794.237 260.961 795.312C263.723 796.777 265.764 799.162 266.585 802.202Q266.731 802.747 266.822 803.303Q266.912 803.86 266.946 804.423Q266.979 804.986 266.956 805.549Q266.932 806.113 266.852 806.671Q266.771 807.229 266.634 807.776Q266.497 808.323 266.306 808.853Q266.114 809.384 265.87 809.892Q265.626 810.4 265.331 810.881C263.459 813.933 260.639 815.507 257.273 816.42C255.228 816.323 253.319 816.073 251.496 815.084C248.711 813.575 246.601 811.135 245.732 808.065Q245.576 807.53 245.476 806.982Q245.376 806.434 245.332 805.878Q245.289 805.323 245.302 804.766Q245.316 804.208 245.386 803.656Q245.456 803.103 245.583 802.56Q245.71 802.018 245.891 801.491Q246.072 800.964 246.307 800.458Q246.541 799.953 246.826 799.474C248.661 796.393 251.259 795.072 254.604 794.136Z"/>
	<path fill="#FEE9E1" d="M380.873 824.25L425.764 824.207C422.024 842.241 419.267 860.55 416.269 878.724L401.284 968.615L383.25 968.725C368.312 968.78 353.145 969.385 338.234 968.593C337.87 953.509 338.079 938.359 338.044 923.269L338.282 824.404C352.448 824.006 366.697 824.282 380.873 824.25Z"/>
	<path fill="#FEE9E1" d="M694.838 716.267C708.314 715.716 721.969 716.127 735.462 716.11L811.014 716.101L810.98 788.845C810.971 799.27 811.441 809.942 811.077 820.335C811.034 821.572 811.07 822.59 810.39 823.666L809.125 823.874L693.031 823.794C695.686 808.141 694.851 792.198 694.797 776.378Q694.611 746.322 694.838 716.267Z"/>
	<path fill="#FEE9E1" d="M352.365 716.247L520.495 716.214L520.522 731.414C507.944 736.198 495.157 740.549 482.523 745.201C475.943 747.624 468.828 749.684 462.828 753.345C457.665 756.495 453.505 760.668 449.572 765.213C437.073 781.245 430.477 802.303 425.911 821.921C396.712 821.451 367.445 821.856 338.241 821.96C337.738 786.779 338.16 751.513 338.316 716.328L352.365 716.247Z"/>
	<path fill="#FEFEFE" d="M85.1325 411.12C93.09 410.474 101.391 410.901 109.383 410.902L153.143 410.902L198.074 410.874C206.222 410.867 214.685 410.425 222.795 411.084C225.627 411.314 228.066 412.212 230.508 413.646C235.617 416.647 239.383 421.289 240.739 427.103C241.979 432.418 241.948 475.303 241.169 481.04C240.733 484.246 239.787 487.358 237.993 490.077C235.118 494.437 231.05 496.369 226.089 497.496C218.707 498.4 210.831 497.822 203.383 497.76L168.115 497.669L114.053 497.642C104.578 497.64 94.7849 498.152 85.3443 497.494C82.6413 497.305 80.2506 496.547 77.9415 495.123C73.2688 492.243 70.3701 487.829 69.1916 482.504C67.9543 476.913 67.9114 434.972 68.8075 428.097C69.2341 424.823 70.2302 421.6 72.0681 418.833C75.2613 414.026 79.6886 412.134 85.1325 411.12Z"/>
	<path fill="#4666C9" d="M205.462 447.015C206.787 446.915 208.224 446.814 209.528 447.126C211.619 447.625 213.311 449.417 214.23 451.288C215.088 453.036 215.207 454.987 214.537 456.818C213.71 459.079 212.326 460.085 210.194 461.017C209.102 461.072 207.969 461.151 206.882 461.011C204.975 460.766 203.278 459.661 202.154 458.115C200.985 456.509 200.626 454.599 201.056 452.666C201.674 449.885 203.178 448.549 205.462 447.015Z"/>
	<path fill="#4666C9" d="M152.468 447.583C153.9 447.431 155.522 447.156 156.941 447.491C158.9 447.953 160.763 449.526 161.786 451.227C162.668 452.693 162.933 454.379 162.519 456.036C161.892 458.549 160.454 459.757 158.34 461.087C157.051 461.284 155.649 461.572 154.344 461.489C152.724 461.387 151.124 460.455 150.073 459.246C148.799 457.78 148.279 455.965 148.488 454.038C148.808 451.095 150.233 449.368 152.468 447.583Z"/>
	<path fill="#4666C9" d="M100.495 446.951C101.616 446.824 102.882 446.795 103.995 446.996C105.841 447.331 107.724 448.585 108.775 450.131C109.887 451.769 110.159 453.781 109.761 455.7C109.153 458.636 107.349 459.975 104.952 461.527C103.975 461.543 102.967 461.574 101.995 461.454C99.9517 461.203 97.8232 459.704 96.7248 457.993C95.6694 456.349 95.3896 454.367 95.8721 452.478C96.5392 449.867 98.3268 448.357 100.495 446.951Z"/>
	<path fill="#F4793D" d="M118.139 668.715C170.107 668.124 222.151 668.825 274.128 668.776C314.004 668.738 354.017 667.719 393.876 668.651C395.021 671.382 396.05 673.991 398.229 676.08C400.093 677.867 402.532 678.888 404.883 679.871C415.404 684.268 426.703 687.441 437.514 691.103C450.172 695.39 463.236 700.553 476.233 703.583Q478.667 704.127 481.151 704.346Q483.635 704.564 486.127 704.455C496.337 704.03 505.523 699.839 511.713 691.559C514.57 687.738 517.043 683.448 520.286 679.949C520.393 679.833 520.503 679.72 520.611 679.606L520.562 688.375L520.511 713.843C507.324 713.996 494.109 713.639 480.917 713.623L392.438 713.713L118.213 713.72C117.934 698.735 118.156 683.705 118.139 668.715Z"/>
	<path fill="#4666C9" d="M519.868 734.037C521.11 735.411 520.464 780.704 520.38 785.974C503.676 786.034 486.885 786.367 470.194 785.733C467.713 803.713 469.569 822.017 478.057 838.302C486.312 854.138 498.727 863.645 515.574 869.019C512.208 886.1 509.845 903.449 507.057 920.64C505.567 929.824 504.518 939.65 501.629 948.518C499.398 955.37 495.5 962.107 492.511 968.695L453.125 968.705L404.055 968.715C406.262 949.292 410.502 930.166 413.573 910.876Q418.325 880.398 423.615 850.009C427.442 828.075 430.783 806.634 439.876 786.122C445.888 772.561 454.485 759.658 468.287 753.138C473.917 750.479 480.143 748.759 486.018 746.667Q503.009 740.529 519.868 734.037Z"/>
	<path fill="#B5C3FA" d="M284.165 540.099C339.526 539.281 394.964 540.378 450.335 540.187Q459.755 571.042 468.351 602.137C471.545 613.512 474.407 625.24 478.385 636.364L474.756 642.551L454.228 636.258C446.268 633.502 427.661 626.425 420.167 628.154C417.59 628.748 415.342 630.055 413.436 631.87C407.705 637.328 400.603 650.893 396.184 658.032Q355.508 657.863 314.836 658.484C311.066 645.442 308.175 632.156 304.852 618.997Q294.844 579.46 284.165 540.099Z"/>
	<path fill="#FEE9E1" d="M693.591 826.243L810.782 826.289C810.954 873.702 811.798 921.29 810.696 968.683L758.473 968.717L691.212 968.721C685.946 959.431 681.64 949.564 676.861 940.016C665.233 916.783 653.789 893.297 641.717 870.298L645.406 869.241C662.321 864.333 676.837 854.751 685.903 839.381C688.331 835.266 689.896 830.799 692.184 826.645L693.591 826.243Z"/>
	<path fill="#FEFEFE" d="M756.201 346.591Q756.85 346.557 757.499 346.549C771.685 346.335 785.927 346.703 800.118 346.717L892.003 346.685L931.971 346.611C939.108 346.578 947.267 345.786 954.308 346.969C959.372 347.819 964.155 350.455 967.746 354.119C973.034 359.515 974.532 366.301 974.558 373.592L974.533 431.355C974.555 440.414 975.653 454.213 974.007 462.849C973.123 467.483 971.113 471.825 967.683 475.124C959.908 482.603 949.647 481.741 939.75 481.673L797.508 481.611C793.295 486.741 789.937 492.835 785.92 498.187C783.982 492.796 782.698 487.216 781.322 481.663C770.963 481.319 757.644 483.787 748.417 478.447C743.432 475.562 738.159 469.75 736.829 464.046C735.409 457.957 736.459 430.937 736.467 422.486L736.419 386.06C736.41 378.929 735.972 371.462 736.859 364.385C737.25 361.257 738.435 358.654 740.224 356.06C744.112 350.423 749.7 347.885 756.201 346.591Z"/>
	<path fill="#010000" d="M762.386 379.201C766.03 379.243 771.535 378.397 774.876 379.887L775.331 381.29C772.067 381.49 766.048 382.488 763.182 381.094C762.446 380.737 762.548 379.933 762.386 379.201Z"/>
	<path fill="#010000" d="M768.186 449.253C770.6 449.137 772.941 448.771 775.029 450.221L774.747 450.94C772.809 451.834 770.737 451.572 768.65 451.527C766.383 451.586 764.435 451.865 762.414 450.658L762.573 449.938C764.358 449.002 766.229 449.22 768.186 449.253Z"/>
	<path fill="#010000" d="M940.059 379.164C943.569 378.629 951.159 377.935 954.34 379.267C955.111 379.59 955.12 380.408 955.38 381.141C951.444 381.534 946.894 381.718 942.963 381.15C941.297 380.909 941.03 380.505 940.059 379.164Z"/>
	<path fill="#010000" d="M911.992 414.121C917.323 413.851 952.431 413.086 954.817 414.624L954.875 416.2C949.454 416.437 914.745 417.175 912.332 415.874L911.992 414.121Z"/>
	<path fill="#010000" d="M762.365 414.568C768.178 414.401 806.848 413.669 809.25 415.027L809.302 416.462C804.157 416.666 764.434 417.405 762.736 416.333L762.365 414.568Z"/>
	<path fill="#010000" d="M868.366 379.14C874.424 379.077 916.225 378.152 918.308 379.606L918.341 381.01C912.3 381.257 870.85 382.069 868.784 380.93L868.366 379.14Z"/>
	<path fill="#010000" d="M796.84 379.052C802.315 378.876 842.717 378.315 844.461 379.733L844.614 381.274C838.459 381.338 800.257 382.332 797.333 380.92L796.84 379.052Z"/>
	<path fill="#010000" d="M796.881 448.96C803.284 448.72 842.593 447.845 845.332 449.617L845.356 451.087C829.681 451.544 813.833 451.575 798.152 451.337C796.956 450.595 797.205 450.269 796.881 448.96Z"/>
	<path fill="#010000" d="M830.441 414.6C835.598 414.355 886.819 414.043 888.043 414.512C888.34 414.626 888.552 414.893 888.806 415.084L888.844 416.492C882.364 416.686 833.045 417.582 831.101 416.54C830.485 416.21 830.559 415.232 830.441 414.6Z"/>
	<path fill="#010000" d="M868.175 449.051C885.148 448.504 902.291 448.952 919.278 448.927C930.7 448.91 942.841 448.062 954.182 449.137L954.689 449.757L954.465 451.041C944.95 451.299 871.229 452.234 868.713 450.87L868.175 449.051Z"/>
	<path fill="#FEFEFE" d="M606.488 520.228C606.86 520.211 607.232 520.191 607.603 520.185Q608.666 520.173 609.729 520.188Q610.792 520.202 611.855 520.243Q612.917 520.284 613.978 520.35Q615.039 520.417 616.098 520.51Q617.157 520.603 618.214 520.722Q619.27 520.841 620.323 520.987Q621.377 521.132 622.426 521.303Q623.475 521.474 624.52 521.671Q625.565 521.867 626.604 522.09Q627.644 522.312 628.678 522.561Q629.712 522.809 630.739 523.082Q631.766 523.356 632.787 523.655Q633.807 523.953 634.82 524.277Q635.832 524.601 636.837 524.95Q637.841 525.298 638.836 525.672Q639.832 526.045 640.818 526.443Q641.804 526.841 642.779 527.263Q643.755 527.685 644.72 528.13Q645.685 528.576 646.639 529.046Q647.593 529.516 648.535 530.009Q649.477 530.501 650.407 531.017Q651.336 531.533 652.253 532.072Q653.169 532.611 654.072 533.172Q654.975 533.734 655.864 534.317Q656.753 534.9 657.627 535.505Q658.501 536.11 659.36 536.737Q660.219 537.363 661.062 538.01Q661.906 538.658 662.733 539.326Q663.56 539.994 664.37 540.682Q665.181 541.37 665.974 542.078Q666.767 542.786 667.542 543.514Q668.318 544.241 669.075 544.987C687.119 562.537 692.098 582.527 692.302 606.856L692.382 751.074L692.377 787.549C692.398 798.29 693.078 809.456 690.914 820.038Q690.464 822.149 689.864 824.223Q689.264 826.296 688.517 828.321Q687.769 830.346 686.879 832.312Q685.988 834.279 684.959 836.176Q683.929 838.073 682.767 839.892Q681.604 841.711 680.314 843.441Q679.023 845.172 677.612 846.805Q676.201 848.439 674.677 849.967C667.144 857.542 656.956 863.671 646.568 866.32C635.964 869.024 621.231 867.613 610.084 867.592L557.422 867.497C546.095 867.565 532.321 868.541 521.274 867.415C508.459 866.108 495.851 858.118 487.817 848.285C473.582 830.861 469.71 810.369 471.942 788.454C488.814 787.928 505.841 788.403 522.731 788.307C523.291 782.081 522.997 775.637 523.001 769.379L523.024 736.27L523.283 636.368C523.238 621.927 521.71 596.063 524.477 582.983C527.122 570.477 533.844 558.12 542.31 548.604C558.56 530.337 582.613 521.648 606.488 520.228Z"/>
	<path fill="#FEE9E1" d="M351.938 58.7052C355.892 58.3366 359.965 58.4577 363.936 58.4248L440.458 58.3271C464.356 58.3091 492.941 56.1796 515.877 62.0599Q517.753 62.5267 519.611 63.0571Q521.47 63.5876 523.309 64.1812Q525.149 64.7747 526.967 65.4306Q528.785 66.0866 530.579 66.8041Q532.374 67.5217 534.143 68.3Q535.912 69.0784 537.654 69.9166Q539.395 70.7548 541.107 71.652Q542.819 72.5491 544.5 73.5041Q546.18 74.4591 547.827 75.4709Q549.474 76.4826 551.085 77.5499Q552.697 78.6173 554.271 79.7389Q555.845 80.8606 557.379 82.0353Q558.914 83.21 560.408 84.4363Q561.902 85.6627 563.353 86.9393Q564.805 88.2159 566.211 89.5412Q567.618 90.8665 568.979 92.2391Q570.703 93.9602 572.351 95.754Q573.999 97.5477 575.568 99.4109Q577.138 101.274 578.625 103.203Q580.112 105.132 581.515 107.124Q582.918 109.115 584.234 111.165Q585.55 113.215 586.776 115.32Q588.002 117.425 589.136 119.581Q590.27 121.737 591.31 123.94Q592.351 126.142 593.295 128.388Q594.239 130.633 595.086 132.917Q595.932 135.202 596.679 137.52Q597.427 139.839 598.073 142.187Q598.72 144.536 599.264 146.91Q599.809 149.284 600.251 151.68Q600.693 154.076 601.031 156.488Q601.369 158.9 601.603 161.325C602.636 172.763 602.082 184.385 602.139 195.862C602.242 216.645 607.951 233.78 623.033 248.55C631.914 257.247 642.539 263.486 654.613 266.593Q656.091 266.974 657.585 267.287Q659.079 267.599 660.586 267.841Q662.093 268.084 663.61 268.256Q665.127 268.428 666.65 268.529Q668.173 268.63 669.699 268.66Q671.225 268.69 672.751 268.649Q674.277 268.609 675.799 268.497Q677.322 268.385 678.837 268.202Q680.353 268.019 681.858 267.766Q683.363 267.513 684.855 267.191Q686.347 266.868 687.822 266.476Q689.297 266.084 690.753 265.624Q692.208 265.164 693.641 264.636Q695.073 264.109 696.479 263.515Q697.886 262.922 699.263 262.263Q700.64 261.605 701.985 260.883C707.351 258.022 712.371 254.429 717.547 251.237Q735.268 240.388 752.724 229.118C762.018 223.175 771.318 216.36 781.551 212.183Q784.994 210.744 788.563 209.655Q792.132 208.565 795.792 207.836Q799.451 207.107 803.165 206.746Q806.88 206.384 810.611 206.394C832.526 206.237 852.362 215.033 867.861 230.351C890.436 252.663 890.801 275.206 890.915 304.592L891.039 344.359L798.167 344.39L772.627 344.396C766.286 344.399 759.671 344.043 753.407 345.1C748.736 345.888 744.988 347.65 741.576 351.021C738.515 354.046 735.882 358.222 734.933 362.454C733.095 370.651 734.196 385.823 734.188 394.614L734.032 452.774C734.039 461.557 734.225 469.154 740.963 475.763C751.497 486.094 765.768 484.076 779.261 483.974C781.554 490.364 782.982 497.38 784.763 503.948C789.663 497.491 794.193 490.662 798.858 484.028L892.798 484.067C892.314 489.469 891.954 494.76 892.599 500.166C895.2 521.97 909.096 541.266 930.222 548.329C942.02 552.273 950.454 552.152 960.754 560.394C971.572 569.05 978.004 582.214 979.376 595.893C980.532 607.416 979.976 619.42 980.008 631.014L980.14 689.284L980.096 765.144C980.125 789.929 981.618 814.902 976.259 839.287Q975.711 841.765 975.092 844.225Q974.473 846.686 973.783 849.128Q973.092 851.57 972.332 853.991Q971.571 856.412 970.74 858.809Q969.91 861.207 969.01 863.58Q968.111 865.952 967.143 868.298Q966.174 870.644 965.139 872.96Q964.103 875.277 963.001 877.562Q961.899 879.848 960.731 882.101Q959.563 884.354 958.33 886.571Q957.097 888.789 955.801 890.971Q954.504 893.152 953.145 895.295Q951.786 897.437 950.365 899.54Q948.944 901.642 947.463 903.703Q945.982 905.763 944.442 907.78Q942.902 909.797 941.304 911.768C916.434 942.313 878.939 964.177 839.523 968.157L839.395 805.766Q839.144 760.913 839.352 716.061C860.336 715.847 881.482 716.748 902.437 715.82L902.368 666.691C879.038 665.907 855.466 666.59 832.112 666.575L694.882 666.503L694.801 620.684C694.774 608.195 695.459 595.176 692.813 582.917Q692.392 580.975 691.873 579.057Q691.353 577.139 690.735 575.25Q690.117 573.361 689.403 571.507Q688.689 569.652 687.881 567.837Q687.073 566.021 686.172 564.25Q685.272 562.478 684.281 560.755Q683.291 559.033 682.214 557.363Q681.136 555.693 679.974 554.081C667.083 535.965 646.075 522.821 624.207 519.061C626.151 515.79 627.889 512.525 629.484 509.07C636.128 494.373 641.352 474.896 638.934 458.717Q638.779 457.669 638.573 456.63Q638.366 455.591 638.108 454.563Q637.85 453.535 637.541 452.522Q637.232 451.509 636.872 450.512Q636.513 449.515 636.105 448.537Q635.697 447.56 635.24 446.604Q634.784 445.648 634.28 444.715Q633.776 443.783 633.227 442.877Q632.678 441.971 632.084 441.094Q631.49 440.216 630.853 439.37Q630.217 438.523 629.539 437.709Q628.86 436.895 628.143 436.115Q627.425 435.336 626.669 434.594Q625.913 433.851 625.121 433.147Q624.33 432.443 623.504 431.779Q622.678 431.116 621.82 430.494C609.943 421.956 591.746 421.889 577.833 424.264C569.943 425.61 563.591 428.857 558.925 435.644C555.311 440.901 552.703 448.284 554.015 454.655C555.451 461.629 560.481 465.015 566.04 468.634C565.496 479.186 563.616 495.515 564.986 505.605C566.096 513.772 570.5 518.315 576.641 523.181C565.714 527.805 554.778 533.404 545.943 541.428C537.822 548.804 533.287 557.497 527.124 566.285C522.105 573.441 516.779 580.339 511.869 587.587C502.982 600.708 494.539 614.198 485.274 627.052L467.659 563.794C464.461 552.54 460.639 541.431 458.223 529.973Q423.252 529.683 388.281 529.821L271.56 530.001C276.375 545.996 279.637 562.729 283.687 578.966L305.624 666.145L183.899 666.132C161.279 666.122 138.334 665.332 115.75 666.39C115.12 682.854 115.36 699.694 115.748 716.17C134.952 716.745 154.331 716.278 173.559 716.382L173.605 967.56C142.574 960.033 115.871 944.178 93.5691 921.455C68.4231 895.835 51.2297 859.946 47.1795 824.292C44.6365 801.905 45.8642 773.955 45.8131 751.041L45.8283 652.64C45.9012 644.444 46.4535 636.268 48.6263 628.327C56.822 598.376 82.768 575.292 113.034 569.179C139.632 563.806 160.601 574.595 183.29 552.045C199.141 536.29 198.391 520.938 198.402 500.287C210.003 500.033 228.013 502.992 237.184 494.618C241.673 490.519 243.381 484.653 243.641 478.766C244.064 469.173 243.78 459.446 243.78 449.839C243.78 442.465 244.663 433.636 243.11 426.47C242.256 422.53 239.848 418.595 237.079 415.708C227.487 405.709 211.008 408.618 198.377 408.543L198.381 278.381L198.398 239.378C198.406 223.964 198.113 208.848 201.316 193.654C207.538 164.138 220.251 137.591 239.902 114.672Q241.22 113.158 242.575 111.676Q243.93 110.194 245.321 108.746Q246.711 107.298 248.137 105.884Q249.563 104.47 251.022 103.092Q252.482 101.714 253.975 100.371Q255.468 99.0289 256.994 97.7235Q258.519 96.4181 260.076 95.1504Q261.633 93.8826 263.221 92.6534Q264.808 91.4241 266.425 90.234Q268.042 89.0439 269.688 87.8937Q271.333 86.7435 273.007 85.6339Q274.68 84.5243 276.38 83.4559Q278.08 82.3876 279.805 81.3611Q281.531 80.3346 283.281 79.3506Q285.031 78.3667 286.805 77.4258Q288.578 76.4849 290.375 75.5876Q292.171 74.6904 293.988 73.8373Q295.806 72.9843 297.644 72.1759Q299.481 71.3675 301.339 70.6044Q303.196 69.8412 305.071 69.1236Q306.946 68.4061 308.838 67.7346Q310.73 67.0631 312.638 66.4381Q314.546 65.8131 316.469 65.235Q318.392 64.6568 320.328 64.1258Q322.264 63.5948 324.213 63.1113Q326.162 62.6279 328.122 62.1922Q330.081 61.7565 332.051 61.3689Q334.021 60.9812 336 60.6419Q337.979 60.3025 339.966 60.0117Q341.952 59.7208 343.945 59.4786Q345.939 59.2364 347.937 59.0431Q349.935 58.8497 351.938 58.7052Z"/>
	<path fill="#010000" d="M319.995 258.176C320.187 258.159 320.378 258.138 320.569 258.125C330.23 257.492 340.174 257.941 349.859 257.945L404.487 257.949L447.523 257.913C454.939 257.909 462.85 257.395 470.218 258.188Q470.898 258.263 471.569 258.391Q472.241 258.519 472.901 258.699Q473.561 258.879 474.204 259.11Q474.848 259.341 475.472 259.622Q476.095 259.902 476.695 260.23Q477.295 260.558 477.868 260.932Q478.44 261.306 478.982 261.724Q479.524 262.142 480.031 262.6C485.121 267.208 486.981 273.316 487.152 280.014C487.386 289.193 487.06 298.429 487.102 307.617C487.147 317.246 488.344 331.185 486.354 340.173C485.506 344.004 483.679 347.716 480.888 350.506C474.372 357.018 464.897 356.093 456.444 356.148L454.642 362.113C453.47 366.283 452.351 373.371 449.607 376.627C447.234 375.601 439.29 359.552 437.143 356.057L357.216 356.019C345.613 356.038 329.595 357.055 318.403 355.681C315.188 355.287 312.704 354.44 310.023 352.592C305.721 349.625 302.41 344.887 301.594 339.677C300.044 329.771 301.031 318.53 301.034 308.492C301.038 297.931 300.075 286.288 301.611 275.851C302.162 272.112 303.104 268.672 305.412 265.596C309.045 260.754 314.212 258.879 319.995 258.176Z"/>
	<path fill="#F4793D" d="M318.369 260.618C328.616 259.888 339.185 260.363 349.471 260.37L404.315 260.376L447.411 260.359C455.035 260.36 463.106 259.844 470.662 260.723C473.379 261.039 476.227 262.279 478.325 264.028C482.237 267.289 483.915 272.321 484.449 277.227C485.363 285.63 484.53 294.818 484.54 303.301C484.552 313.352 485.639 328.551 484.18 338.126C483.655 341.575 482.684 344.965 480.41 347.689C474.001 355.367 465.132 352.656 456.67 353.481C455.305 353.614 455.142 353.649 454.291 354.64C452.964 360.54 451.108 366.191 448.991 371.85C445.285 365.887 441.94 359.685 438.656 353.484L361.52 353.515C348.41 353.532 334.86 354.26 321.791 353.399C319.119 353.223 315.96 352.901 313.519 351.794C309.487 349.965 305.993 345.644 304.618 341.502C302.754 335.891 302.907 285.148 303.775 277.166C304.08 274.361 304.676 271.885 306.056 269.397C308.902 264.268 312.888 262.077 318.369 260.618Z"/>
	<path fill="#FEFEFE" d="M335.523 302.099C336.718 301.915 338.068 301.75 339.277 301.87C341.06 302.046 342.878 303.301 343.896 304.736Q344.103 305.028 344.277 305.341Q344.451 305.654 344.59 305.984Q344.73 306.313 344.833 306.656Q344.936 306.999 345.002 307.351Q345.068 307.703 345.095 308.06Q345.123 308.417 345.112 308.775Q345.101 309.133 345.052 309.487Q345.002 309.842 344.915 310.189C344.221 313.029 342.546 314.506 340.097 315.899C339.669 315.902 339.241 315.91 338.814 315.887C336.371 315.752 333.81 314.845 332.214 312.904C331.12 311.573 330.644 309.936 330.861 308.225C331.228 305.328 333.302 303.696 335.523 302.099Z"/>
	<path fill="#FEFEFE" d="M393.127 301.543C394.27 301.664 395.512 301.751 396.593 302.157C398.416 302.842 400.032 304.444 400.799 306.22Q400.939 306.546 401.043 306.885Q401.147 307.224 401.214 307.572Q401.281 307.92 401.311 308.273Q401.34 308.627 401.332 308.981Q401.324 309.336 401.278 309.687Q401.232 310.039 401.149 310.383Q401.066 310.728 400.947 311.062Q400.827 311.396 400.673 311.715C399.548 314.095 397.749 315.092 395.396 316.031C394.188 316.021 392.889 315.916 391.738 315.516C389.737 314.819 388.072 313.019 387.333 311.064Q387.208 310.729 387.118 310.382Q387.028 310.036 386.976 309.682Q386.923 309.328 386.907 308.97Q386.891 308.612 386.913 308.255Q386.935 307.898 386.994 307.545Q387.053 307.192 387.148 306.847Q387.244 306.502 387.375 306.169Q387.506 305.836 387.671 305.518C388.845 303.233 390.807 302.333 393.127 301.543Z"/>
	<path fill="#FEFEFE" d="M449.018 301.008C450.102 301.048 451.238 301.079 452.294 301.347C454.173 301.822 456.016 303.309 456.964 304.982C457.91 306.655 458.087 308.626 457.564 310.465C456.782 313.213 454.888 314.622 452.524 315.999C451.398 316.035 450.108 316.062 449.007 315.784C447.265 315.345 445.57 313.897 444.651 312.386C443.567 310.605 443.371 308.518 443.903 306.52C444.651 303.707 446.581 302.331 449.018 301.008Z"/>
</svg>
